REM DIRINDEX 1\2,1\3,1\4,1\6,1\5\7,1\5\8
REM DIRNAME cjc114,folder01,folder02,folder03,folder04,folder05,folder06,folder07
TITLE ""
FILE "DB4500_5th_5C_13.mp3" MP3
  TRACK 01 AUDIO
    TITLE "2:cjc114_3648"
    INDEX 01 00:00:00
  TRACK 02 AUDIO
    TITLE "0:"
    INDEX 01 00:01:11
  TRACK 03 AUDIO
    TITLE "3:cjc114_3649"
    INDEX 01 00:01:26
  TRACK 04 AUDIO
    TITLE "0:"
    INDEX 01 00:02:36
  TRACK 05 AUDIO
    TITLE "4:cjc114_3650"
    INDEX 01 00:02:51
  TRACK 06 AUDIO
    TITLE "0:"
    INDEX 01 00:05:38
  TRACK 07 AUDIO
    TITLE "2:cjc114_3651"
    INDEX 01 00:06:00
  TRACK 08 AUDIO
    TITLE "0:"
    INDEX 01 00:07:21
  TRACK 09 AUDIO
    TITLE "3:cjc114_3652"
    INDEX 01 00:07:37
  TRACK 10 AUDIO
    TITLE "0:"
    INDEX 01 00:09:06
  TRACK 11 AUDIO
    TITLE "4:cjc114_3653"
    INDEX 01 00:09:22
  TRACK 12 AUDIO
    TITLE "0:"
    INDEX 01 00:12:46
  TRACK 13 AUDIO
    TITLE "2:cjc114_3654"
    INDEX 01 00:13:08
  TRACK 14 AUDIO
    TITLE "0:"
    INDEX 01 00:14:23
  TRACK 15 AUDIO
    TITLE "3:cjc114_3655"
    INDEX 01 00:14:37
  TRACK 16 AUDIO
    TITLE "0:"
    INDEX 01 00:15:40
  TRACK 17 AUDIO
    TITLE "4:cjc114_3656"
    INDEX 01 00:15:54
  TRACK 18 AUDIO
    TITLE "0:"
    INDEX 01 00:19:28
  TRACK 19 AUDIO
    TITLE "2:cjc114_3657"
    INDEX 01 00:19:67
  TRACK 20 AUDIO
    TITLE "0:"
    INDEX 01 00:21:00
  TRACK 21 AUDIO
    TITLE "3:cjc114_3658"
    INDEX 01 00:21:13
  TRACK 22 AUDIO
    TITLE "0:"
    INDEX 01 00:22:44
  TRACK 23 AUDIO
    TITLE "4:cjc114_3659"
    INDEX 01 00:22:60
  TRACK 24 AUDIO
    TITLE "0:"
    INDEX 01 00:26:01
  TRACK 25 AUDIO
    TITLE "2:cjc114_3660"
    INDEX 01 00:26:38
  TRACK 26 AUDIO
    TITLE "0:"
    INDEX 01 00:27:59
  TRACK 27 AUDIO
    TITLE "3:cjc114_3661"
    INDEX 01 00:28:00
  TRACK 28 AUDIO
    TITLE "0:"
    INDEX 01 00:29:29
  TRACK 29 AUDIO
    TITLE "4:cjc114_3662"
    INDEX 01 00:29:40
  TRACK 30 AUDIO
    TITLE "0:"
    INDEX 01 00:32:68
  TRACK 31 AUDIO
    TITLE "2:cjc114_3663"
    INDEX 01 00:33:42
  TRACK 32 AUDIO
    TITLE "0:"
    INDEX 01 00:35:02
  TRACK 33 AUDIO
    TITLE "3:cjc114_3664"
    INDEX 01 00:35:19
  TRACK 34 AUDIO
    TITLE "0:"
    INDEX 01 00:36:27
  TRACK 35 AUDIO
    TITLE "4:cjc114_3665"
    INDEX 01 00:36:40
  TRACK 36 AUDIO
    TITLE "0:"
    INDEX 01 00:39:47
  TRACK 37 AUDIO
    TITLE "2:cjc114_3666"
    INDEX 01 00:40:17
  TRACK 38 AUDIO
    TITLE "0:"
    INDEX 01 00:41:12
  TRACK 39 AUDIO
    TITLE "3:cjc114_3667"
    INDEX 01 00:41:36
  TRACK 40 AUDIO
    TITLE "0:"
    INDEX 01 00:42:55
  TRACK 41 AUDIO
    TITLE "4:cjc114_3668"
    INDEX 01 00:42:74
  TRACK 42 AUDIO
    TITLE "0:"
    INDEX 01 00:47:15
  TRACK 43 AUDIO
    TITLE "2:cjc114_3669"
    INDEX 01 00:47:62
  TRACK 44 AUDIO
    TITLE "0:"
    INDEX 01 00:48:71
  TRACK 45 AUDIO
    TITLE "3:cjc114_3670"
    INDEX 01 00:49:18
  TRACK 46 AUDIO
    TITLE "0:"
    INDEX 01 00:50:37
  TRACK 47 AUDIO
    TITLE "4:cjc114_3671"
    INDEX 01 00:50:54
  TRACK 48 AUDIO
    TITLE "0:"
    INDEX 01 00:53:37
  TRACK 49 AUDIO
    TITLE "2:cjc114_3672"
    INDEX 01 00:54:09
  TRACK 50 AUDIO
    TITLE "0:"
    INDEX 01 00:55:24
  TRACK 51 AUDIO
    TITLE "3:cjc114_3673"
    INDEX 01 00:55:48
  TRACK 52 AUDIO
    TITLE "0:"
    INDEX 01 00:56:39
  TRACK 53 AUDIO
    TITLE "4:cjc114_3674"
    INDEX 01 00:56:63
  TRACK 54 AUDIO
    TITLE "0:"
    INDEX 01 01:00:49
  TRACK 55 AUDIO
    TITLE "2:cjc114_3675"
    INDEX 01 01:01:13
  TRACK 56 AUDIO
    TITLE "0:"
    INDEX 01 01:02:26
  TRACK 57 AUDIO
    TITLE "3:cjc114_3676"
    INDEX 01 01:02:48
  TRACK 58 AUDIO
    TITLE "0:"
    INDEX 01 01:04:07
  TRACK 59 AUDIO
    TITLE "4:cjc114_3677"
    INDEX 01 01:04:25
  TRACK 60 AUDIO
    TITLE "0:"
    INDEX 01 01:08:25
  TRACK 61 AUDIO
    TITLE "2:cjc114_3678"
    INDEX 01 01:08:70
  TRACK 62 AUDIO
    TITLE "0:"
    INDEX 01 01:10:08
  TRACK 63 AUDIO
    TITLE "3:cjc114_3679"
    INDEX 01 01:10:30
  TRACK 64 AUDIO
    TITLE "0:"
    INDEX 01 01:11:56
  TRACK 65 AUDIO
    TITLE "4:cjc114_3680"
    INDEX 01 01:12:01
  TRACK 66 AUDIO
    TITLE "0:"
    INDEX 01 01:16:16
  TRACK 67 AUDIO
    TITLE "2:cjc114_3681"
    INDEX 01 01:16:60
  TRACK 68 AUDIO
    TITLE "0:"
    INDEX 01 01:18:06
  TRACK 69 AUDIO
    TITLE "3:cjc114_3682"
    INDEX 01 01:18:25
  TRACK 70 AUDIO
    TITLE "0:"
    INDEX 01 01:19:70
  TRACK 71 AUDIO
    TITLE "4:cjc114_3683"
    INDEX 01 01:20:12
  TRACK 72 AUDIO
    TITLE "0:"
    INDEX 01 01:23:62
